# xmcd CD database file
#
# Track frame offsets:
#	150
#	6981
#	20175
#
# Disc length: 434 seconds
#
# Revision: 0
# Processed by: cddbd v1.4PL0 Copyright (c) Steve Scherf et al.
# Submitted via: CDex 1.50beta10
#
DISCID=1f01b003
DTITLE=Carlton Football Club - Carlton Football Club Song
DYEAR=1999
DGENRE=Blues
TTITLE0=Carlton Football Club Song (Lily of Laguna) - The Fable Sisters
TTITLE1=One Day in September - Mike Brady
TTITLE2=Up there Cazaly - The Two Man Band
EXTD=YEAR: 1999
EXTT0=
EXTT1=
EXTT2=
PLAYORDER=
